# xmcd CD database file
# Copyright (C) 1993-2000  Ti Kan
#
# Track frame offsets:
#	183
#	12055
#	24888
#	38338
#	50003
#	64985
#	79108
#	93765
#	106620
#	121598
#	133783
#	147590
#	161358
#	175560
#	188738
#	202478
#	217195
#	230653
#	243003
#	259758
#
# Disc length: 3735 seconds
#
# Revision: 2
# Processed by: cddbd v1.4b41PL1 Copyright (c) Steve Scherf et al.
# Submitted via: xmcd 2.6 PL0
#
DISCID=060e9514
DTITLE=Pete Johnson - 1938-1939
DYEAR=1900
DGENRE=
TTITLE0=Goin' Away Blues
TTITLE1=Roll 'Em, Pete
TTITLE2=Boo-Woo
TTITLE3=Home James
TTITLE4=Shuffle Boogie
TTITLE5=Lone Star Blues
TTITLE6=B and O Blues
TTITLE7=How Long, How Long
TTITLE8=Climbin' And Screamin'
TTITLE9=Buss Robinson Blues
TTITLE10=Pete's Blues
TTITLE11=Let 'Em Jump
TTITLE12=Pete's Blues No. 2
TTITLE13=Cherry Red
TTITLE14=Baby, Look At You
TTITLE15=Lovin' Mama Blues
TTITLE16=Cafe Society Rag
TTITLE17=Boogie Woogie
TTITLE18=Vine Street Bustle
TTITLE19=Some Day Blues
EXTD=Series: Chronogical Classics Nr 656
EXTT0=
EXTT1=
EXTT2=
EXTT3=
EXTT4=
EXTT5=
EXTT6=
EXTT7=
EXTT8=
EXTT9=
EXTT10=
EXTT11=
EXTT12=
EXTT13=
EXTT14=
EXTT15=
EXTT16=
EXTT17=
EXTT18=
EXTT19=
PLAYORDER=
